<svg xmlns="http://www.w3.org/2000/svg" viewBox="0 0 606.96 479.25"><defs><style>.cls-1{fill:#e5e5e5;}.cls-16,.cls-2,.cls-8{fill:none;stroke:#4d4d61;}.cls-2,.cls-8{stroke-linecap:round;stroke-linejoin:round;}.cls-2{stroke-width:3px;}.cls-3{fill:#4d4d61;}.cls-4{fill:#56566d;}.cls-5{fill:#f7e3cb;}.cls-6{fill:#edd6bc;}.cls-7{fill:#ffd680;}.cls-16,.cls-8{stroke-width:2px;}.cls-9{fill:#eabd6c;}.cls-10{fill:#ca4361;}.cls-11{fill:#595d5c;}.cls-12{fill:#9b8462;}.cls-13,.cls-28{fill:#e1c885;}.cls-14{fill:#d35375;}.cls-15{fill:#a3886c;}.cls-16{stroke-miterlimit:10;}.cls-17{fill:#b0977a;}.cls-18{fill:#475c80;}.cls-19{fill:#6987af;opacity:0.57;}.cls-20{fill:#fff;}.cls-21{fill:#66667c;opacity:0.44;}.cls-22{fill:#b98c78;}.cls-23{fill:#c9a08f;}.cls-24{fill:#575770;}.cls-25{fill:#83abba;}.cls-26{fill:#92b4c3;}.cls-27{fill:#acd3e5;}.cls-28{opacity:0.74;}.cls-29{fill:#9ec0cc;}</style></defs><title>Asset 1</title><g id="Layer_2" data-name="Layer 2"><g id="Layer_1-2" data-name="Layer 1"><ellipse class="cls-1" cx="303.48" cy="450.9" rx="303.48" ry="28.35"/><rect class="cls-2" x="407.83" y="359.36" width="32.27" height="56.82" rx="16.14" transform="translate(847.94 775.55) rotate(-180)"/><rect class="cls-3" x="407.83" y="359.36" width="32.27" height="56.82" rx="16.14" transform="translate(847.94 775.55) rotate(-180)"/><path class="cls-4" d="M412.33,405.89V381.34a16.14,16.14,0,0,1,16.14-16.13h0a16,16,0,0,1,10.18,3.62A16.13,16.13,0,0,0,424,359.36h0a16.14,16.14,0,0,0-16.14,16.14v24.55a16.13,16.13,0,0,0,6,12.52A16,16,0,0,1,412.33,405.89Z"/><ellipse class="cls-3" cx="423.77" cy="362.61" rx="8.92" ry="3.24"/><path class="cls-3" d="M424,323.83h0a6,6,0,0,1,6,6v27.73a5.09,5.09,0,0,1-5.09,5.09H423.1a5.09,5.09,0,0,1-5.09-5.09V329.79A6,6,0,0,1,424,323.83Z" transform="translate(847.94 686.44) rotate(-180)"/><path class="cls-2" d="M424,323.83h0a6,6,0,0,1,6,6v27.81a5,5,0,0,1-5,5H423a5,5,0,0,1-5-5V329.79A6,6,0,0,1,424,323.83Z" transform="translate(847.94 686.44) rotate(-180)"/><path class="cls-1" d="M297.93,117.69H280.79a5.8,5.8,0,1,1,0-11.6H288a10.34,10.34,0,1,0,0-20.67H265.39a1.71,1.71,0,1,1,0-3.42h2.48a1.85,1.85,0,0,0,0-3.69H250.21a2.23,2.23,0,1,0,0,4.45h6.87a3.69,3.69,0,0,1,3.69,3.69h0a3.69,3.69,0,0,1-3.69,3.69h-3.3a8.57,8.57,0,1,0,0,17.14h7a2.91,2.91,0,0,1,0,5.82H258.1a5.61,5.61,0,0,0,0,11.22h36.5a3.57,3.57,0,0,1,3.56,3.74l-.14,2.8h7.26V125A7.35,7.35,0,0,0,297.93,117.69ZM274.25,95.92a1.65,1.65,0,0,1,1.66-1.65h9.94a1.66,1.66,0,0,1,0,3.31h-9.94A1.66,1.66,0,0,1,274.25,95.92Z"/><rect class="cls-1" x="240" y="74.06" width="7" height="4" rx="2"/><rect class="cls-3" x="483.1" y="290.77" width="6.49" height="14.57" rx="3.25" transform="translate(-84.04 292.62) rotate(-30.96)"/><rect class="cls-3" x="488.81" y="288.35" width="6.49" height="14.57" rx="3.25" transform="translate(-21.7 551.69) rotate(-57.49)"/><rect class="cls-3" x="492.38" y="284.09" width="6.49" height="14.57" rx="3.25" transform="translate(139.63 742.82) rotate(-82.19)"/><rect class="cls-3" x="490.27" y="282.66" width="14.57" height="6.49" rx="3.25" transform="translate(-35.65 73.77) rotate(-8.19)"/><rect class="cls-3" x="491.05" y="276.61" width="14.57" height="6.49" rx="3.25" transform="translate(-59.94 157.42) rotate(-16.95)"/><rect class="cls-3" x="491.17" y="269.91" width="14.57" height="6.49" rx="3.25" transform="translate(-64.81 196.99) rotate(-21.02)"/><rect class="cls-3" x="490.83" y="263.43" width="14.57" height="6.49" rx="3.25" transform="translate(-66.79 255.97) rotate(-27.08)"/><rect class="cls-3" x="490.2" y="258.73" width="14.57" height="6.49" rx="3.25" transform="translate(-64.7 253.91) rotate(-26.95)"/><path class="cls-2" d="M310.59,137.08a13.21,13.21,0,1,0,13.21,13.21A13.22,13.22,0,0,0,310.59,137.08Zm0,21.24a8,8,0,1,1,8-8A8,8,0,0,1,310.59,158.32Z"/><path class="cls-5" d="M321.44,143.36H310.06a4,4,0,0,0-3.53,5.93,12.73,12.73,0,0,0,11.27,6.81h1.28v15h13.74V154.73A11.38,11.38,0,0,0,321.44,143.36Z"/><path class="cls-6" d="M321.44,143.36h-5.67a11.38,11.38,0,0,1,11.38,11.37v16.38h5.67V154.73A11.38,11.38,0,0,0,321.44,143.36Z"/><path class="cls-2" d="M321.44,143.36H308.6a3,3,0,0,0-2.91,3.95,12.74,12.74,0,0,0,12.11,8.79h1.28v15h13.74V154.73A11.38,11.38,0,0,0,321.44,143.36Z"/><path class="cls-7" d="M282.93,131.48h19.21a7.68,7.68,0,0,1,7.68,7.68v29.95a0,0,0,0,1,0,0H275.25a0,0,0,0,1,0,0V139.16A7.68,7.68,0,0,1,282.93,131.48Z" transform="translate(585.07 300.59) rotate(180)"/><path class="cls-8" d="M275.25,158.32h4.49a11.15,11.15,0,0,0,11.15-11.15v-4.35l2.28,1.84"/><path class="cls-9" d="M299.79,131.48v30a7.68,7.68,0,0,1-7.68,7.68h10a7.68,7.68,0,0,0,7.68-7.68v-30Z"/><path class="cls-2" d="M282.93,131.48h19.21a7.68,7.68,0,0,1,7.68,7.68v29.95a0,0,0,0,1,0,0H275.25a0,0,0,0,1,0,0V139.16A7.68,7.68,0,0,1,282.93,131.48Z" transform="translate(585.07 300.59) rotate(180)"/><polygon class="cls-10" points="368.22 172.11 373.19 182.5 380.61 177.3 368.22 172.11"/><polygon class="cls-8" points="368.22 172.11 373.19 182.5 380.61 177.3 368.22 172.11"/><rect class="cls-5" x="355.53" y="303.12" width="16.07" height="108.07" transform="translate(860.85 468.72) rotate(148.15)"/><rect class="cls-2" x="355.53" y="303.12" width="16.07" height="108.07" transform="translate(860.85 468.72) rotate(148.15)"/><polygon class="cls-5" points="179.07 380.23 284.98 295.01 295.2 307.4 189.3 392.63 179.07 380.23"/><polygon class="cls-6" points="190.65 370.91 200.34 383.74 210 376.25 200.32 363.13 190.65 370.91"/><polygon class="cls-2" points="179.07 380.23 284.98 295.01 295.2 307.4 189.3 392.63 179.07 380.23"/><path class="cls-2" d="M407,172.2l-7.61-8.82A8.92,8.92,0,0,0,385.85,175l7.61,8.82a33.33,33.33,0,0,1-3.48,47h0a33.34,33.34,0,0,1-55.09-25.26v-36.3H317.05v36.3A51.21,51.21,0,0,0,329.47,239h0a51.17,51.17,0,0,0,72.16,5.34h0A51.17,51.17,0,0,0,407,172.2Z"/><path class="cls-10" d="M378.32,177.3s11.51,11.53,18.85,21.86,12.66,24,12.66,26.67c4.16,2.66,5.34,4.17,6,3.5s.75-4.75.75-8.21S384.09,173.46,378.32,177.3Z"/><path class="cls-8" d="M378.32,177.3s11.51,11.53,18.85,21.86,12.66,24,12.66,26.67c4.16,2.66,5.34,4.17,6,3.5s.75-4.75.75-8.21S384.09,173.46,378.32,177.3Z"/><rect class="cls-11" x="329.92" y="415.96" width="87.02" height="5.61" rx="2.71" transform="matrix(0.96, -0.29, 0.29, 0.96, -105.72, 126.82)"/><rect class="cls-2" x="329.92" y="415.96" width="87.02" height="5.61" rx="2.71" transform="matrix(0.96, -0.29, 0.29, 0.96, -105.72, 126.82)"/><path class="cls-12" d="M400.78,389.49l-.33.09c-1.72,3-5.3,5.69-9.88,7.08a18.82,18.82,0,0,1-9.61.51,15.29,15.29,0,0,0-7.63,0l-30.78,8.6a12.37,12.37,0,0,0-8.09,7.75l-3.28,8.55c-1.1,2.86,1.42,6.19,4.08,5.39l75.55-23L407.64,394C406.63,390.73,403.58,388.71,400.78,389.49Z"/><path class="cls-13" d="M334.46,413.51l-.53,1.37a10.53,10.53,0,0,0,9.56,1.79l47.2-14.36a10.51,10.51,0,0,0,7.43-9.87,19.41,19.41,0,0,1-7.55,4.22,18.82,18.82,0,0,1-9.61.51,15.29,15.29,0,0,0-7.63,0l-30.78,8.6A12.37,12.37,0,0,0,334.46,413.51Z"/><path class="cls-2" d="M400.78,389.49l-.33.09c-1.72,3-5.3,5.69-9.88,7.08a18.82,18.82,0,0,1-9.61.51,15.29,15.29,0,0,0-7.63,0l-30.78,8.6a12.37,12.37,0,0,0-8.09,7.75l-3.28,8.55c-1.1,2.86,1.42,6.19,4.08,5.39l75.55-23L407.64,394C406.63,390.73,403.58,388.71,400.78,389.49Z"/><polygon class="cls-2" points="373.35 406.12 378.71 396.79 374.64 396.87 373.35 406.12"/><path class="cls-5" d="M358.43,151.47a181.21,181.21,0,0,1,81.71,118.06h13.77a181.18,181.18,0,0,0-77.77-122"/><path class="cls-2" d="M441.62,321.36l11.11-7.18H396.61l11.11,7.18A31.26,31.26,0,0,0,441.62,321.36Z"/><path class="cls-3" d="M441.62,321.36l11.11-7.18H396.61l11.11,7.18A31.26,31.26,0,0,0,441.62,321.36Z"/><path class="cls-5" d="M372.93,149.09a32,32,0,0,0,19.67-29.53V108.72h2.16A13.84,13.84,0,0,0,408.6,94.89c0-7.64-5.32-14.71-13-14.71l-3.68.34.64-17a32,32,0,0,0-32-32h0a32,32,0,0,0-32,32v17.5h-9.5a5.33,5.33,0,0,0-5.34,5.33,14.17,14.17,0,0,0,14.17,14.17h.67v19a32,32,0,0,0,29.83,31.91"/><path class="cls-10" d="M474.89,294.89H367a9.28,9.28,0,0,0-1.06.06,15.44,15.44,0,1,0,8.92,28.77c10.23-5.93,21.64-9.54,33.47-9.54h66.59a9.64,9.64,0,0,0,9.64-9.65h0A9.64,9.64,0,0,0,474.89,294.89Z"/><path class="cls-14" d="M368.25,316.74a15.45,15.45,0,0,1,14.2-16.46,9.28,9.28,0,0,1,1.06-.06h100a9.65,9.65,0,0,0-8.62-5.33H367a9.28,9.28,0,0,0-1.06.06,15.44,15.44,0,1,0,5.61,30.19A15.29,15.29,0,0,1,368.25,316.74Z"/><path class="cls-2" d="M474.89,294.89H367a9.28,9.28,0,0,0-1.06.06,15.44,15.44,0,1,0,8.92,28.77c10.23-5.93,21.64-9.54,33.47-9.54h66.59a9.64,9.64,0,0,0,9.64-9.65h0A9.64,9.64,0,0,0,474.89,294.89Z"/><rect class="cls-3" x="445.24" y="399.35" width="7.37" height="31.99" transform="translate(1000.4 150.92) rotate(111.61)"/><path class="cls-3" d="M401.78,399.35h0a3.68,3.68,0,0,1,3.68,3.68v28.31a0,0,0,0,1,0,0h-7.37a0,0,0,0,1,0,0V403A3.68,3.68,0,0,1,401.78,399.35Z" transform="translate(639.99 -111.14) rotate(68.39)"/><path class="cls-15" d="M408.3,97.74l-4.62,24.62a19.2,19.2,0,0,1-21,15.53h-.05l11.84-49.72Z"/><path class="cls-2" d="M408.3,97.74l-4.62,24.62a19.2,19.2,0,0,1-21,15.53h-.05l11.84-49.72Z"/><path class="cls-6" d="M328.6,102.24V100a5.12,5.12,0,0,0-6-5l-3.72,1.26Z"/><path class="cls-6" d="M394.37,81.06H392.6V64c-7.7,11.94-19.67,27.61-19.67,27.61V113a28.41,28.41,0,0,1-28.42,28.42h-7.26a31.9,31.9,0,0,0,23.35,10.13h0a32,32,0,0,0,32-32V108.72h2.16a13.84,13.84,0,0,0,13.82-14.5A14.09,14.09,0,0,0,394.37,81.06Z"/><path class="cls-2" d="M376.14,147.53a32,32,0,0,0,16.46-28V108.72h2.16A13.84,13.84,0,0,0,408.6,94.89c0-7.64-5.32-14.71-13-14.71l-3.68.34.64-17a32,32,0,0,0-32-32h0a32,32,0,0,0-32,32v17.5h-9.5a5.33,5.33,0,0,0-5.34,5.33,14.17,14.17,0,0,0,14.17,14.17h.67v19a32,32,0,0,0,29.83,31.91"/><circle class="cls-16" cx="341.1" cy="74.06" r="2"/><path class="cls-8" d="M359.93,94.48v16.18a18.69,18.69,0,0,1-18.69,18.69h0A12.64,12.64,0,0,1,328.6,116.7"/><line class="cls-8" x1="358.22" y1="93.51" x2="361.76" y2="95.43"/><polygon class="cls-17" points="345.18 55.22 341.58 62.2 355.64 70.85 356.55 64.85 345.18 55.22"/><path class="cls-15" d="M345.18,55.22l-1.11,2.15a9.07,9.07,0,0,1,6.75,8.69,8.88,8.88,0,0,1-.17,1.72l5,3.07.91-6Z"/><polygon class="cls-8" points="345.18 55.22 341.58 62.2 355.64 70.85 356.55 64.85 345.18 55.22"/><path class="cls-17" d="M413.91,46c3.44,2.15,4.94,2.73,8.24,2.73-5.72-8-7.12-23.67-15.6-33.63-3.79-4.46-8.08-9.41-16.29-11.87C376.2-1,362.88,3.73,361.18,4.64c-10.29,5.51-20.58,18.09-17.58,28.92.34,1.24-.68,2,0,2.88,11.27-8.62,29.09-6,37.5,5.6h0c6.65,9.18,4.9,24.15-1.56,32.83-1.89,1.89-2.71,8.32-5.49,14.71L381.59,85c7.73-4.68,19.28-3.28,25.67,3.11h0a15.78,15.78,0,0,1,2.14,5.93,23.12,23.12,0,0,0,3-2.13c7.42-6.23,8.7-15.55,9-18C423.39,59.57,415.44,47.7,413.91,46Z"/><path class="cls-15" d="M422.15,48.72c-5.72-8-7.12-23.67-15.6-33.63-3.31-3.9-7-8.17-13.35-10.82A46.26,46.26,0,0,1,378.75,76c-1.39,2.69-2.34,8.13-4.7,13.55L381.59,85c7.73-4.68,19.28-3.28,25.67,3.11h0a15.78,15.78,0,0,1,2.14,5.93,23.12,23.12,0,0,0,3-2.13c7.42-6.23,8.7-15.55,9-18,2-14.32-6-26.19-7.52-27.9C417.35,48.14,418.85,48.72,422.15,48.72Z"/><path class="cls-2" d="M413.91,46c3.44,2.15,4.94,2.73,8.24,2.73-5.72-8-7.12-23.67-15.6-33.63-3.79-4.46-8.08-9.41-16.29-11.87C376.2-1,362.88,3.73,361.18,4.64c-10.29,5.51-20.58,18.09-17.58,28.92.34,1.24-.68,2,0,2.88,11.27-8.62,29.09-6,37.5,5.6h0c6.65,9.18,4.9,24.15-1.56,32.83-1.89,1.89-2.71,8.32-5.49,14.71l11.3-6.84a16,16,0,0,1,21.91,5.39h0a15.74,15.74,0,0,1,2.14,5.92h0a22.45,22.45,0,0,0,3-2.13c7.42-6.23,8.7-15.55,9-18C423.39,59.57,415.44,47.7,413.91,46Z"/><line class="cls-8" x1="388.5" y1="90.15" x2="400.39" y2="98.68"/><line class="cls-8" x1="398.92" y1="88.17" x2="390.4" y2="100.06"/><path class="cls-8" d="M330.9,96.79l1.11.95a4.46,4.46,0,0,1,4.64-1C335.9,95.35,330.05,94.66,330.9,96.79Z"/><path class="cls-2" d="M358.43,151.47a181.21,181.21,0,0,1,81.71,118.06h13.77a181.18,181.18,0,0,0-77.77-122"/><rect class="cls-18" x="291.04" y="322.6" width="116.07" height="24.07" transform="translate(249 807.73) rotate(-121.85)"/><path class="cls-19" d="M320.31,311.89l44.13,70.29h0c2.82-1.75,11.26,2.11,9.51-.71l-40.32-60.29c-1.76-2.83-9.54-10.08-12.36-8.33Z"/><path class="cls-3" d="M318.41,308.08s18.86-5.88,25.39-4.73c-6.63-12.69-9-15.19-9-15.19l-25.33,8.17Z"/><rect class="cls-2" x="291.04" y="322.6" width="116.07" height="24.07" transform="translate(249 807.73) rotate(-121.85)"/><path class="cls-18" d="M271.55,299.42,194.48,363l15.32,18.56,70.39-58.1a126.3,126.3,0,0,1,80.4-28.89h87.35a12,12,0,0,0,12-12v-12h-108A126.27,126.27,0,0,0,271.55,299.42Z"/><path class="cls-19" d="M199.27,359.07l6.81,9.49,80.52-72.12-4.13-5.09a129.14,129.14,0,0,0-10.92,8.07Z"/><path class="cls-19" d="M334.46,276.77,424.51,278c4.68,0,20.46-2.79,20.46-7.46h-93c-9.6,0-39.79,4.74-50.89,10.71C298.27,282.73,321,276.77,334.46,276.77Z"/><path class="cls-2" d="M271.55,299.42,194.48,363l15.32,18.56,70.39-58.1a126.3,126.3,0,0,1,80.4-28.89h87.35a12,12,0,0,0,12-12v-12h-108A126.27,126.27,0,0,0,271.55,299.42Z"/><path class="cls-1" d="M460,269.53a188,188,0,0,0-64.87-115.2l-21.91,15.2a176,176,0,0,1,60.82,100Z"/><path class="cls-20" d="M434,269.53h11a188,188,0,0,0-63.21-106l-8.65,6A176,176,0,0,1,434,269.53Z"/><path class="cls-2" d="M460,269.53a188,188,0,0,0-64.87-115.2l-21.91,15.2a176,176,0,0,1,60.82,100Z"/><path class="cls-17" d="M300.14,200.15s-8.32,6.93-7.56-7.32c.35-6.52,8.75-6.34,8.75-6.34l.9,6.09Z"/><path class="cls-2" d="M300.14,200.15s-8.32,6.93-7.56-7.32c.35-6.52,8.75-6.34,8.75-6.34l.9,6.09Z"/><path class="cls-6" d="M324.71,184.77h0a23.65,23.65,0,0,1-17.07,9.88c-5.22.49-5.07-11.49-13.18,2.68-3.24,1.67-7-1.74-8.75-3.66a1.43,1.43,0,0,1,.1-2,18.22,18.22,0,0,0,5.58-9.81c.92-5.24,2.62-9,6.69-6.83C301.67,176.91,324.05,174.26,324.71,184.77Z"/><path class="cls-2" d="M324.71,184.77h0a23.65,23.65,0,0,1-17.07,9.88c-5.22.49-5.07-11.49-13.18,2.68-3.21,1.66-6.91-1.66-8.69-3.59a1.51,1.51,0,0,1,.1-2.15,18.34,18.34,0,0,0,5.52-9.76c.92-5.24,2.62-9,6.69-6.83C301.67,176.91,324.05,174.26,324.71,184.77Z"/><path class="cls-6" d="M327.59,196.53s-2.88-8.37-10.74-12.43c-.85,3.07-4.85,6.21-8.67,7.27l2.16,3.82a5.68,5.68,0,0,1-3,8.15h0a5.68,5.68,0,0,1-7.19-3.19l-4.94-14.89s9.56-3.55,12.53-6.47c2-2,6.7-9.5,6.7-9.5s8.7,2.12,14.57,8c4.88,4.88,9.29,13.18,9.29,13.18Z"/><path class="cls-5" d="M306,203l-4.93-14.9s9.55-3.54,12.53-6.47c2-1.95,6.7-9.49,6.7-9.49a32,32,0,0,1,3.32,1.08,38.2,38.2,0,0,0-9.2-3.9s-4.71,7.54-6.7,9.5c-3,2.92-12.53,6.47-12.53,6.47l4.94,14.89a5.68,5.68,0,0,0,6.18,3.45A6.14,6.14,0,0,1,306,203Z"/><path class="cls-5" d="M322.72,186.92a6.36,6.36,0,0,1-.5,1.23,25.51,25.51,0,0,1,5.37,8.38l3.41-1.94A22.33,22.33,0,0,0,322.72,186.92Z"/><path class="cls-2" d="M327.59,196.53s-2.88-8.37-10.74-12.43c-.85,3.07-4.85,6.21-8.67,7.27l2.16,3.82a5.68,5.68,0,0,1-3,8.15h0a5.68,5.68,0,0,1-7.19-3.19l-4.94-14.89s9.56-3.55,12.53-6.47c2-2,6.7-9.5,6.7-9.5s8.7,2.12,14.57,8c4.88,4.88,9.29,13.18,9.29,13.18Z"/><path class="cls-8" d="M300.17,197.33l3-.87s1.5,1.54,1.5,2.87-3.46,2.5-3.46,2.5S298.92,198.58,300.17,197.33Z"/><path class="cls-8" d="M288.5,189l2.39,2s-.45,2.1-1.56,2.84-4-1.49-4-1.49S286.77,188.7,288.5,189Z"/><path class="cls-1" d="M340.11,188.27l25.54,48.91a33.33,33.33,0,0,0,17.25,15.56h0a33.31,33.31,0,0,0,43.27-18.67h0a33.3,33.3,0,0,0-18.67-43.26l-10.82-4.3a8.92,8.92,0,0,1-5-11.64h0a8.91,8.91,0,0,1,11.56-4.94l10.82,4.3a51.16,51.16,0,0,1,28.66,66.43h0a51.16,51.16,0,0,1-66.43,28.66h0a51.18,51.18,0,0,1-26.49-23.88l-25.12-48.11Z"/><polygon class="cls-1" points="346.97 201.41 340.11 188.26 324.71 197.33 331.5 210.32 346.97 201.41"/><path class="cls-20" d="M324.71,197.33l25.12,48.11a51.75,51.75,0,0,0,3,5c-.56-3.55,3,4,3,4l-25.59-60.45Z"/><polygon class="cls-2" points="346.97 201.41 340.11 188.26 324.71 197.33 331.5 210.32 346.97 201.41"/><path class="cls-20" d="M393,180.57a8.92,8.92,0,0,1,11.56-4.94l10.82,4.3a51.09,51.09,0,0,1,30.39,33.8,51.12,51.12,0,0,0-31.64-39.5l-10.82-4.3a8.91,8.91,0,0,0-11.56,4.94h0a8.89,8.89,0,0,0,.66,8A9.16,9.16,0,0,1,393,180.57Z"/><path class="cls-20" d="M341.38,190.71l20.95,47.69c5.26,9.63,11.82,17.1,19.25,20,17.11,6.79,39.05-1.57,45.84-18.67h0a33.15,33.15,0,0,0,.84-22.23,33.11,33.11,0,0,1-2.09,16.52h0a33.33,33.33,0,0,1-60.52,3.11l-25.54-48.91"/><path class="cls-2" d="M340.11,188.27l25.54,48.91a33.33,33.33,0,0,0,17.25,15.56h0a33.31,33.31,0,0,0,43.27-18.67h0a33.3,33.3,0,0,0-18.67-43.26l-10.82-4.3a8.92,8.92,0,0,1-5-11.64h0a8.91,8.91,0,0,1,11.56-4.94l10.82,4.3a51.16,51.16,0,0,1,28.66,66.43h0a51.16,51.16,0,0,1-66.43,28.66h0a51.18,51.18,0,0,1-26.49-23.88l-25.12-48.11Z"/><polygon class="cls-1" points="395.45 151.56 379.38 179.43 361.18 167.5 388.05 148.6 395.45 151.56"/><path class="cls-20" d="M382,152.86,361.18,167.5l8.16,5.35.3-.15C378.83,167.68,384,159.15,382,152.86Z"/><polygon class="cls-2" points="395.45 151.56 379.38 179.43 361.18 167.5 388.05 148.6 395.45 151.56"/><circle class="cls-4" cx="373.31" cy="425.1" r="19.64"/><path class="cls-21" d="M362,434.84a19.61,19.61,0,0,1,29.56-16.93A19.63,19.63,0,1,0,363.39,442,19.53,19.53,0,0,1,362,434.84Z"/><circle class="cls-2" cx="373.31" cy="425.1" r="19.64"/><circle class="cls-2" cx="373.31" cy="425.1" r="9.75"/><circle class="cls-3" cx="373.31" cy="425.1" r="9.75"/><path class="cls-10" d="M396.12,415.35a11.79,11.79,0,0,1-8.56-3.76,19.59,19.59,0,0,0-28.22-.28,13,13,0,0,1-9.23,4H350a25.25,25.25,0,0,1,46.59,0Z"/><path class="cls-14" d="M367.2,400.59A25.36,25.36,0,0,0,350,415.35h.09a12.21,12.21,0,0,0,8.94-3.74c2-2.1,6.13-3.76,9.45-4.82,2.9-.93,3.11-5.12.23-6.11A2.66,2.66,0,0,0,367.2,400.59Z"/><path class="cls-2" d="M396.12,415.35a11.79,11.79,0,0,1-8.56-3.76,19.59,19.59,0,0,0-28.22-.28,13,13,0,0,1-9.23,4H350a25.25,25.25,0,0,1,46.59,0Z"/><circle class="cls-4" cx="478.34" cy="425.1" r="19.64"/><path class="cls-21" d="M467.73,434.84a19.62,19.62,0,0,1,29.57-16.93A19.63,19.63,0,1,0,469.11,442,19.53,19.53,0,0,1,467.73,434.84Z"/><circle class="cls-2" cx="478.34" cy="425.1" r="19.64"/><rect class="cls-2" x="111.26" y="263.41" width="13.58" height="186.65"/><rect class="cls-3" x="111.26" y="263.41" width="13.58" height="186.65"/><circle class="cls-2" cx="478.34" cy="425.1" r="9.75"/><path class="cls-10" d="M501.15,415.35a11.79,11.79,0,0,1-8.56-3.76,19.59,19.59,0,0,0-28.22-.28,13,13,0,0,1-9.22,4h-.1a25.25,25.25,0,0,1,46.59,0Z"/><circle class="cls-3" cx="478.34" cy="425.1" r="9.75"/><path class="cls-2" d="M501.15,415.35a11.79,11.79,0,0,1-8.56-3.76,19.59,19.59,0,0,0-28.22-.28,13,13,0,0,1-9.22,4h-.1a25.25,25.25,0,0,1,46.59,0Z"/><rect class="cls-22" x="43.37" y="228.1" width="302.21" height="16.74" rx="4.33"/><path class="cls-23" d="M155.4,237.33c-42.73,0-81.09,2.9-107.44,7.51H262.83C236.48,240.23,198.12,237.33,155.4,237.33Z"/><rect class="cls-2" x="43.37" y="228.1" width="302.21" height="16.74" rx="4.33"/><rect class="cls-2" x="68.65" y="244.84" width="251.66" height="21.36" rx="10.68"/><rect class="cls-3" x="68.65" y="244.84" width="251.66" height="21.36" rx="10.68"/><path class="cls-24" d="M164.5,261.22c-32.87,0-61.11,2-73.48,5H238C225.61,263.27,197.37,261.22,164.5,261.22Z"/><circle class="cls-25" cx="168.59" cy="205.38" r="6.54"/><circle class="cls-2" cx="168.59" cy="205.38" r="6.54"/><path class="cls-26" d="M145.74,66.24h.46a8.7,8.7,0,0,1,8.7,8.7V195.87a8.7,8.7,0,0,1-8.7,8.7h-.46a0,0,0,0,1,0,0V66.24A0,0,0,0,1,145.74,66.24Z" transform="translate(322.27 242) rotate(169.78)"/><path class="cls-27" d="M156.17,193.69a286,286,0,0,0-4.47-49.61,283.94,283.94,0,0,0-13.51-50.14Z"/><path class="cls-2" d="M145.74,66.24h.46a8.7,8.7,0,0,1,8.7,8.7V195.87a8.7,8.7,0,0,1-8.7,8.7h-.46a0,0,0,0,1,0,0V66.24A0,0,0,0,1,145.74,66.24Z" transform="translate(322.27 242) rotate(169.78)"/><rect class="cls-2" x="271.13" y="264.25" width="13.58" height="186.65"/><rect class="cls-3" x="271.13" y="264.25" width="13.58" height="186.65"/><path class="cls-26" d="M181.16,205.38h125a11.09,11.09,0,0,1,11.09,11.09v4.65a0,0,0,0,1,0,0H170.06a0,0,0,0,1,0,0v-4.65A11.09,11.09,0,0,1,181.16,205.38Z" transform="translate(487.35 426.5) rotate(-180)"/><path class="cls-25" d="M306.2,217.62h-125a11.1,11.1,0,0,1-11.1-11.09V210a11.09,11.09,0,0,0,11.1,11.09h125A11.09,11.09,0,0,0,317.29,210v-3.5A11.1,11.1,0,0,1,306.2,217.62Z"/><path class="cls-2" d="M181.16,205.38h125a11.09,11.09,0,0,1,11.09,11.09v4.65a0,0,0,0,1,0,0H170.06a0,0,0,0,1,0,0v-4.65A11.09,11.09,0,0,1,181.16,205.38Z" transform="translate(487.35 426.5) rotate(-180)"/><rect class="cls-2" x="188.56" y="221.12" width="110.23" height="6.98" transform="translate(487.35 449.22) rotate(-180)"/><rect class="cls-3" x="188.56" y="221.12" width="110.23" height="6.98" transform="translate(487.35 449.22) rotate(-180)"/><rect class="cls-8" x="243.83" y="209.76" width="9.91" height="3.34" transform="translate(497.56 422.87) rotate(-180)"/><rect class="cls-8" x="229.72" y="209.76" width="9.91" height="3.34" transform="translate(469.35 422.87) rotate(-180)"/><circle class="cls-8" cx="183.02" cy="211.43" r="1.82"/><path class="cls-10" d="M535.46,154.09A20.5,20.5,0,0,0,517.13,131c-11.06-1.09-20.89,7.15-22.37,18.17L481.1,251a8.33,8.33,0,0,0,7.15,9.36L500.32,262a8.34,8.34,0,0,0,9.37-7.15l2-15c3.69-27.52,10.5-54.69,22.08-79.93A20.07,20.07,0,0,0,535.46,154.09Z"/><path class="cls-14" d="M507.69,239.84l-2,15a8.32,8.32,0,0,1-6.41,7l1.06.14a8.34,8.34,0,0,0,9.37-7.15l2-15c3.69-27.52,10.5-54.69,22.08-79.93a20.07,20.07,0,0,0,1.68-5.82A20.5,20.5,0,0,0,517.13,131a19.94,19.94,0,0,0-3.94,0,20.49,20.49,0,0,1,18.26,23.12,20.07,20.07,0,0,1-1.68,5.82"/><path class="cls-14" d="M494.76,149.13l-10.59,79c9.16-26.27,18.06-54.61,18.06-76.63,0-14.87,18.1-19.89,23.11-14.88-3.26-6.13-13.75-6.69-19.53-3.38C499.67,136.7,495.41,144.28,494.76,149.13Z"/><path class="cls-2" d="M535.46,154.09A20.5,20.5,0,0,0,517.13,131c-11.06-1.09-20.89,7.15-22.37,18.17L481.1,251a8.33,8.33,0,0,0,7.15,9.36L500.32,262a8.34,8.34,0,0,0,9.37-7.15l2-15c3.69-27.52,10.5-54.69,22.08-79.93A20.07,20.07,0,0,0,535.46,154.09Z"/><rect class="cls-11" x="116.22" y="385.47" width="87.02" height="5.61" rx="2.71" transform="translate(235.73 -24.64) rotate(32.79)"/><rect class="cls-2" x="116.22" y="385.47" width="87.02" height="5.61" rx="2.71" transform="translate(235.73 -24.64) rotate(32.79)"/><path class="cls-12" d="M199.75,390.22l-.28-.19c-3.38.61-7.77-.37-11.79-3a18.78,18.78,0,0,1-6.6-7,15.3,15.3,0,0,0-4.92-5.83l-26.47-17.92a12.39,12.39,0,0,0-11.14-1.17l-8.65,3c-2.89,1-3.8,5.1-1.46,6.6l66.38,42.77,5.91-9.16C202.6,395.48,202.16,391.85,199.75,390.22Z"/><path class="cls-28" d="M138.55,355.15l-1.39.49a10.52,10.52,0,0,0,4.81,8.45l41.48,26.72a10.51,10.51,0,0,0,12.34-.72,19.25,19.25,0,0,1-8.11-3,18.78,18.78,0,0,1-6.6-7,15.3,15.3,0,0,0-4.92-5.83l-26.47-17.92A12.39,12.39,0,0,0,138.55,355.15Z"/><path class="cls-2" d="M199.75,390.22l-.28-.19c-3.38.61-7.77-.37-11.79-3a18.78,18.78,0,0,1-6.6-7,15.3,15.3,0,0,0-4.92-5.83l-26.47-17.92a12.39,12.39,0,0,0-11.14-1.17l-8.65,3c-2.89,1-3.8,5.1-1.46,6.6l66.38,42.77,5.91-9.16C202.6,395.48,202.16,391.85,199.75,390.22Z"/><polygon class="cls-2" points="169.33 380.05 179.92 378.1 177.22 375.05 169.33 380.05"/><polygon class="cls-26" points="198.17 352.16 189.83 360.36 210.17 385.83 220.17 377.55 198.17 352.16"/><path class="cls-29" d="M197.58,352.74l-7.75,7.62,11,13.81a15.35,15.35,0,0,0,2.94-9A15.61,15.61,0,0,0,197.58,352.74Z"/><polygon class="cls-2" points="198.17 352.16 189.83 360.36 210.17 385.83 220.17 377.55 198.17 352.16"/><polygon class="cls-26" points="362.02 384.75 368.29 394.62 397.45 380.07 391.45 368.56 362.02 384.75"/><polygon class="cls-26" points="362.02 384.75 368.29 394.62 397.45 380.07 391.45 368.56 362.02 384.75"/><path class="cls-29" d="M373.31,386a7.44,7.44,0,0,0-3.17-5.72L362,384.75l5.47,8.61C371,391.65,373.31,389,373.31,386Z"/><polygon class="cls-2" points="362.02 384.75 368.29 394.62 397.45 380.07 391.45 368.56 362.02 384.75"/><ellipse class="cls-8" cx="280.5" cy="145.13" rx="0.75" ry="1.31"/><rect class="cls-3" x="190.77" y="208.52" width="9.83" height="7.83" rx="2.43"/></g></g></svg>